<svg xmlns="http://www.w3.org/2000/svg" viewBox="0 0 558 310">
  <defs>
    <linearGradient id="g" x1="0%" y1="0%" x2="0%" y2="100%">
      <stop offset="0%" style="stop-color:#7DF9FF"/>
      <stop offset="30%" style="stop-color:#4DB8E8"/>
      <stop offset="60%" style="stop-color:#2088D0"/>
      <stop offset="100%" style="stop-color:#0A50A0"/>
    </linearGradient>
  </defs>
  <rect width="558" height="310" rx="10" fill="#0d1117"/>
  <g fill="url(#g)">
    <rect x="34" y="20" width="14" height="20"/>
    <rect x="48" y="20" width="14" height="20"/>
    <rect x="64" y="22" width="10" height="16" opacity="0.7"/>
    <rect x="160" y="20" width="14" height="20"/>
    <rect x="174" y="20" width="14" height="20"/>
    <rect x="190" y="22" width="10" height="16" opacity="0.7"/>
    <rect x="286" y="20" width="14" height="20"/>
    <rect x="300" y="20" width="14" height="20"/>
    <rect x="314" y="20" width="14" height="20"/>
    <rect x="330" y="22" width="10" height="16" opacity="0.7"/>
    <rect x="384" y="20" width="14" height="20"/>
    <rect x="398" y="20" width="14" height="20"/>
    <rect x="412" y="20" width="14" height="20"/>
    <rect x="428" y="22" width="10" height="16" opacity="0.7"/>
    <rect x="34" y="40" width="14" height="20"/>
    <rect x="48" y="40" width="14" height="20"/>
    <rect x="64" y="42" width="10" height="16" opacity="0.7"/>
    <rect x="160" y="40" width="14" height="20"/>
    <rect x="174" y="40" width="14" height="20"/>
    <rect x="190" y="42" width="10" height="16" opacity="0.7"/>
    <rect x="286" y="40" width="14" height="20"/>
    <rect x="300" y="40" width="14" height="20"/>
    <rect x="314" y="40" width="14" height="20"/>
    <rect x="328" y="40" width="14" height="20"/>
    <rect x="344" y="42" width="10" height="16" opacity="0.7"/>
    <rect x="370" y="40" width="14" height="20"/>
    <rect x="384" y="40" width="14" height="20"/>
    <rect x="398" y="40" width="14" height="20"/>
    <rect x="412" y="40" width="14" height="20"/>
    <rect x="428" y="42" width="10" height="16" opacity="0.7"/>
    <rect x="34" y="60" width="14" height="20"/>
    <rect x="48" y="60" width="14" height="20"/>
    <rect x="64" y="62" width="10" height="16" opacity="0.7"/>
    <rect x="160" y="60" width="14" height="20"/>
    <rect x="174" y="60" width="14" height="20"/>
    <rect x="190" y="62" width="10" height="16" opacity="0.7"/>
    <rect x="286" y="60" width="14" height="20"/>
    <rect x="300" y="60" width="14" height="20"/>
    <rect x="316" y="62" width="10" height="16" opacity="0.7"/>
    <rect x="328" y="60" width="14" height="20"/>
    <rect x="342" y="60" width="14" height="20"/>
    <rect x="356" y="60" width="14" height="20"/>
    <rect x="370" y="60" width="14" height="20"/>
    <rect x="386" y="62" width="10" height="16" opacity="0.7"/>
    <rect x="398" y="60" width="14" height="20"/>
    <rect x="412" y="60" width="14" height="20"/>
    <rect x="428" y="62" width="10" height="16" opacity="0.7"/>
    <rect x="34" y="80" width="14" height="20"/>
    <rect x="48" y="80" width="14" height="20"/>
    <rect x="64" y="82" width="10" height="16" opacity="0.7"/>
    <rect x="160" y="80" width="14" height="20"/>
    <rect x="174" y="80" width="14" height="20"/>
    <rect x="190" y="82" width="10" height="16" opacity="0.7"/>
    <rect x="286" y="80" width="14" height="20"/>
    <rect x="300" y="80" width="14" height="20"/>
    <rect x="316" y="82" width="10" height="16" opacity="0.7"/>
    <rect x="330" y="82" width="10" height="16" opacity="0.7"/>
    <rect x="342" y="80" width="14" height="20"/>
    <rect x="356" y="80" width="14" height="20"/>
    <rect x="372" y="82" width="10" height="16" opacity="0.7"/>
    <rect x="386" y="82" width="10" height="16" opacity="0.7"/>
    <rect x="398" y="80" width="14" height="20"/>
    <rect x="412" y="80" width="14" height="20"/>
    <rect x="428" y="82" width="10" height="16" opacity="0.7"/>
    <rect x="34" y="100" width="14" height="20"/>
    <rect x="48" y="100" width="14" height="20"/>
    <rect x="62" y="100" width="14" height="20"/>
    <rect x="76" y="100" width="14" height="20"/>
    <rect x="90" y="100" width="14" height="20"/>
    <rect x="104" y="100" width="14" height="20"/>
    <rect x="118" y="100" width="14" height="20"/>
    <rect x="134" y="102" width="10" height="16" opacity="0.7"/>
    <rect x="160" y="100" width="14" height="20"/>
    <rect x="174" y="100" width="14" height="20"/>
    <rect x="188" y="100" width="14" height="20"/>
    <rect x="202" y="100" width="14" height="20"/>
    <rect x="216" y="100" width="14" height="20"/>
    <rect x="230" y="100" width="14" height="20"/>
    <rect x="244" y="100" width="14" height="20"/>
    <rect x="260" y="102" width="10" height="16" opacity="0.7"/>
    <rect x="286" y="100" width="14" height="20"/>
    <rect x="300" y="100" width="14" height="20"/>
    <rect x="316" y="102" width="10" height="16" opacity="0.7"/>
    <rect x="344" y="102" width="10" height="16" opacity="0.7"/>
    <rect x="358" y="102" width="10" height="16" opacity="0.7"/>
    <rect x="372" y="102" width="10" height="16" opacity="0.7"/>
    <rect x="398" y="100" width="14" height="20"/>
    <rect x="412" y="100" width="14" height="20"/>
    <rect x="428" y="102" width="10" height="16" opacity="0.7"/>
    <rect x="36" y="122" width="10" height="16" opacity="0.7"/>
    <rect x="50" y="122" width="10" height="16" opacity="0.7"/>
    <rect x="64" y="122" width="10" height="16" opacity="0.7"/>
    <rect x="78" y="122" width="10" height="16" opacity="0.7"/>
    <rect x="92" y="122" width="10" height="16" opacity="0.7"/>
    <rect x="106" y="122" width="10" height="16" opacity="0.7"/>
    <rect x="120" y="122" width="10" height="16" opacity="0.7"/>
    <rect x="134" y="122" width="10" height="16" opacity="0.7"/>
    <rect x="162" y="122" width="10" height="16" opacity="0.7"/>
    <rect x="176" y="122" width="10" height="16" opacity="0.7"/>
    <rect x="190" y="122" width="10" height="16" opacity="0.7"/>
    <rect x="204" y="122" width="10" height="16" opacity="0.7"/>
    <rect x="218" y="122" width="10" height="16" opacity="0.7"/>
    <rect x="232" y="122" width="10" height="16" opacity="0.7"/>
    <rect x="246" y="122" width="10" height="16" opacity="0.7"/>
    <rect x="260" y="122" width="10" height="16" opacity="0.7"/>
    <rect x="288" y="122" width="10" height="16" opacity="0.7"/>
    <rect x="302" y="122" width="10" height="16" opacity="0.7"/>
    <rect x="316" y="122" width="10" height="16" opacity="0.7"/>
    <rect x="400" y="122" width="10" height="16" opacity="0.7"/>
    <rect x="414" y="122" width="10" height="16" opacity="0.7"/>
    <rect x="428" y="122" width="10" height="16" opacity="0.7"/>
    <rect x="48" y="140" width="14" height="20"/>
    <rect x="62" y="140" width="14" height="20"/>
    <rect x="76" y="140" width="14" height="20"/>
    <rect x="90" y="140" width="14" height="20"/>
    <rect x="104" y="140" width="14" height="20"/>
    <rect x="118" y="140" width="14" height="20"/>
    <rect x="134" y="142" width="10" height="16" opacity="0.7"/>
    <rect x="174" y="140" width="14" height="20"/>
    <rect x="188" y="140" width="14" height="20"/>
    <rect x="202" y="140" width="14" height="20"/>
    <rect x="216" y="140" width="14" height="20"/>
    <rect x="230" y="140" width="14" height="20"/>
    <rect x="244" y="140" width="14" height="20"/>
    <rect x="260" y="142" width="10" height="16" opacity="0.7"/>
    <rect x="300" y="140" width="14" height="20"/>
    <rect x="314" y="140" width="14" height="20"/>
    <rect x="328" y="140" width="14" height="20"/>
    <rect x="342" y="140" width="14" height="20"/>
    <rect x="356" y="140" width="14" height="20"/>
    <rect x="370" y="140" width="14" height="20"/>
    <rect x="386" y="142" width="10" height="16" opacity="0.7"/>
    <rect x="426" y="140" width="14" height="20"/>
    <rect x="440" y="140" width="14" height="20"/>
    <rect x="454" y="140" width="14" height="20"/>
    <rect x="468" y="140" width="14" height="20"/>
    <rect x="482" y="140" width="14" height="20"/>
    <rect x="496" y="140" width="14" height="20"/>
    <rect x="510" y="140" width="14" height="20"/>
    <rect x="526" y="142" width="10" height="16" opacity="0.7"/>
    <rect x="34" y="160" width="14" height="20"/>
    <rect x="48" y="160" width="14" height="20"/>
    <rect x="64" y="162" width="10" height="16" opacity="0.7"/>
    <rect x="78" y="162" width="10" height="16" opacity="0.7"/>
    <rect x="92" y="162" width="10" height="16" opacity="0.7"/>
    <rect x="106" y="162" width="10" height="16" opacity="0.7"/>
    <rect x="120" y="162" width="10" height="16" opacity="0.7"/>
    <rect x="134" y="162" width="10" height="16" opacity="0.7"/>
    <rect x="160" y="160" width="14" height="20"/>
    <rect x="174" y="160" width="14" height="20"/>
    <rect x="190" y="162" width="10" height="16" opacity="0.7"/>
    <rect x="204" y="162" width="10" height="16" opacity="0.7"/>
    <rect x="218" y="162" width="10" height="16" opacity="0.7"/>
    <rect x="232" y="162" width="10" height="16" opacity="0.7"/>
    <rect x="244" y="160" width="14" height="20"/>
    <rect x="258" y="160" width="14" height="20"/>
    <rect x="274" y="162" width="10" height="16" opacity="0.7"/>
    <rect x="300" y="160" width="14" height="20"/>
    <rect x="314" y="160" width="14" height="20"/>
    <rect x="330" y="162" width="10" height="16" opacity="0.7"/>
    <rect x="344" y="162" width="10" height="16" opacity="0.7"/>
    <rect x="358" y="162" width="10" height="16" opacity="0.7"/>
    <rect x="370" y="160" width="14" height="20"/>
    <rect x="384" y="160" width="14" height="20"/>
    <rect x="400" y="162" width="10" height="16" opacity="0.7"/>
    <rect x="426" y="160" width="14" height="20"/>
    <rect x="440" y="160" width="14" height="20"/>
    <rect x="456" y="162" width="10" height="16" opacity="0.7"/>
    <rect x="470" y="162" width="10" height="16" opacity="0.7"/>
    <rect x="484" y="162" width="10" height="16" opacity="0.7"/>
    <rect x="498" y="162" width="10" height="16" opacity="0.7"/>
    <rect x="512" y="162" width="10" height="16" opacity="0.7"/>
    <rect x="526" y="162" width="10" height="16" opacity="0.7"/>
    <rect x="34" y="180" width="14" height="20"/>
    <rect x="48" y="180" width="14" height="20"/>
    <rect x="64" y="182" width="10" height="16" opacity="0.7"/>
    <rect x="160" y="180" width="14" height="20"/>
    <rect x="174" y="180" width="14" height="20"/>
    <rect x="190" y="182" width="10" height="16" opacity="0.7"/>
    <rect x="244" y="180" width="14" height="20"/>
    <rect x="258" y="180" width="14" height="20"/>
    <rect x="274" y="182" width="10" height="16" opacity="0.7"/>
    <rect x="300" y="180" width="14" height="20"/>
    <rect x="314" y="180" width="14" height="20"/>
    <rect x="330" y="182" width="10" height="16" opacity="0.7"/>
    <rect x="370" y="180" width="14" height="20"/>
    <rect x="384" y="180" width="14" height="20"/>
    <rect x="400" y="182" width="10" height="16" opacity="0.7"/>
    <rect x="426" y="180" width="14" height="20"/>
    <rect x="440" y="180" width="14" height="20"/>
    <rect x="454" y="180" width="14" height="20"/>
    <rect x="468" y="180" width="14" height="20"/>
    <rect x="482" y="180" width="14" height="20"/>
    <rect x="498" y="182" width="10" height="16" opacity="0.7"/>
    <rect x="34" y="200" width="14" height="20"/>
    <rect x="48" y="200" width="14" height="20"/>
    <rect x="64" y="202" width="10" height="16" opacity="0.7"/>
    <rect x="160" y="200" width="14" height="20"/>
    <rect x="174" y="200" width="14" height="20"/>
    <rect x="190" y="202" width="10" height="16" opacity="0.7"/>
    <rect x="244" y="200" width="14" height="20"/>
    <rect x="258" y="200" width="14" height="20"/>
    <rect x="274" y="202" width="10" height="16" opacity="0.7"/>
    <rect x="300" y="200" width="14" height="20"/>
    <rect x="314" y="200" width="14" height="20"/>
    <rect x="330" y="202" width="10" height="16" opacity="0.7"/>
    <rect x="370" y="200" width="14" height="20"/>
    <rect x="384" y="200" width="14" height="20"/>
    <rect x="400" y="202" width="10" height="16" opacity="0.7"/>
    <rect x="426" y="200" width="14" height="20"/>
    <rect x="440" y="200" width="14" height="20"/>
    <rect x="456" y="202" width="10" height="16" opacity="0.7"/>
    <rect x="470" y="202" width="10" height="16" opacity="0.7"/>
    <rect x="484" y="202" width="10" height="16" opacity="0.7"/>
    <rect x="498" y="202" width="10" height="16" opacity="0.7"/>
    <rect x="36" y="222" width="10" height="16" opacity="0.7"/>
    <rect x="48" y="220" width="14" height="20"/>
    <rect x="62" y="220" width="14" height="20"/>
    <rect x="76" y="220" width="14" height="20"/>
    <rect x="90" y="220" width="14" height="20"/>
    <rect x="104" y="220" width="14" height="20"/>
    <rect x="118" y="220" width="14" height="20"/>
    <rect x="134" y="222" width="10" height="16" opacity="0.7"/>
    <rect x="162" y="222" width="10" height="16" opacity="0.7"/>
    <rect x="174" y="220" width="14" height="20"/>
    <rect x="188" y="220" width="14" height="20"/>
    <rect x="202" y="220" width="14" height="20"/>
    <rect x="216" y="220" width="14" height="20"/>
    <rect x="230" y="220" width="14" height="20"/>
    <rect x="244" y="220" width="14" height="20"/>
    <rect x="260" y="222" width="10" height="16" opacity="0.7"/>
    <rect x="274" y="222" width="10" height="16" opacity="0.7"/>
    <rect x="300" y="220" width="14" height="20"/>
    <rect x="314" y="220" width="14" height="20"/>
    <rect x="328" y="220" width="14" height="20"/>
    <rect x="342" y="220" width="14" height="20"/>
    <rect x="356" y="220" width="14" height="20"/>
    <rect x="370" y="220" width="14" height="20"/>
    <rect x="386" y="222" width="10" height="16" opacity="0.7"/>
    <rect x="400" y="222" width="10" height="16" opacity="0.7"/>
    <rect x="426" y="220" width="14" height="20"/>
    <rect x="440" y="220" width="14" height="20"/>
    <rect x="454" y="220" width="14" height="20"/>
    <rect x="468" y="220" width="14" height="20"/>
    <rect x="482" y="220" width="14" height="20"/>
    <rect x="496" y="220" width="14" height="20"/>
    <rect x="510" y="220" width="14" height="20"/>
    <rect x="526" y="222" width="10" height="16" opacity="0.7"/>
    <rect x="50" y="242" width="10" height="16" opacity="0.7"/>
    <rect x="64" y="242" width="10" height="16" opacity="0.7"/>
    <rect x="78" y="242" width="10" height="16" opacity="0.7"/>
    <rect x="92" y="242" width="10" height="16" opacity="0.7"/>
    <rect x="106" y="242" width="10" height="16" opacity="0.7"/>
    <rect x="120" y="242" width="10" height="16" opacity="0.7"/>
    <rect x="134" y="242" width="10" height="16" opacity="0.7"/>
    <rect x="176" y="242" width="10" height="16" opacity="0.7"/>
    <rect x="190" y="242" width="10" height="16" opacity="0.7"/>
    <rect x="204" y="242" width="10" height="16" opacity="0.7"/>
    <rect x="218" y="242" width="10" height="16" opacity="0.7"/>
    <rect x="232" y="242" width="10" height="16" opacity="0.7"/>
    <rect x="246" y="242" width="10" height="16" opacity="0.7"/>
    <rect x="260" y="242" width="10" height="16" opacity="0.7"/>
    <rect x="302" y="242" width="10" height="16" opacity="0.7"/>
    <rect x="316" y="242" width="10" height="16" opacity="0.7"/>
    <rect x="330" y="242" width="10" height="16" opacity="0.7"/>
    <rect x="344" y="242" width="10" height="16" opacity="0.7"/>
    <rect x="358" y="242" width="10" height="16" opacity="0.7"/>
    <rect x="372" y="242" width="10" height="16" opacity="0.7"/>
    <rect x="386" y="242" width="10" height="16" opacity="0.7"/>
    <rect x="428" y="242" width="10" height="16" opacity="0.7"/>
    <rect x="442" y="242" width="10" height="16" opacity="0.7"/>
    <rect x="456" y="242" width="10" height="16" opacity="0.7"/>
    <rect x="470" y="242" width="10" height="16" opacity="0.7"/>
    <rect x="484" y="242" width="10" height="16" opacity="0.7"/>
    <rect x="498" y="242" width="10" height="16" opacity="0.7"/>
    <rect x="512" y="242" width="10" height="16" opacity="0.7"/>
    <rect x="526" y="242" width="10" height="16" opacity="0.7"/>
  </g>
  <text x="279" y="282" text-anchor="middle"
        font-family="monospace" font-size="13" fill="#8b949e" letter-spacing="4">
    CODING AGENT RUNTIME
  </text>
</svg>